<svg xmlns="http://www.w3.org/2000/svg" width="36" height="36" viewBox="0 0 36 36" fill="none">
  <defs>
    <radialGradient id="bf-ball" cx="38%" cy="28%" r="60%">
      <stop offset="0%" stop-color="#FFAE4A"/>
      <stop offset="32%" stop-color="#E85C00"/>
      <stop offset="72%" stop-color="#BF3F00"/>
      <stop offset="100%" stop-color="#5C1600"/>
    </radialGradient>
    <radialGradient id="bf-shine" cx="40%" cy="32%" r="50%">
      <stop offset="0%" stop-color="#fff" stop-opacity="0.22"/>
      <stop offset="100%" stop-color="#fff" stop-opacity="0"/>
    </radialGradient>
  </defs>
  <circle cx="18" cy="18" r="17" fill="url(#bf-ball)"/>
  <g transform="rotate(14, 18, 18)" stroke-linecap="round" stroke="#2A0700" stroke-width="1.55" fill="none">
    <line x1="1.5" y1="18" x2="34.5" y2="18"/>
    <line x1="18" y1="1.5" x2="18" y2="34.5"/>
    <path d="M1.5,18 C6,6 12,6 18,18 C24,30 30,30 34.5,18"/>
    <path d="M1.5,18 C6,30 12,30 18,18 C24,6 30,6 34.5,18"/>
  </g>
  <circle cx="18" cy="18" r="17" fill="url(#bf-shine)"/>
  <ellipse cx="11.5" cy="10" rx="4.5" ry="2.8" fill="rgba(255,255,255,0.18)" transform="rotate(-18, 11.5, 10)"/>
</svg>
